<?xml version="1.0" encoding="UTF-8" standalone="no"?>
<!DOCTYPE svg PUBLIC "-//W3C//DTD SVG 1.1//EN" "http://www.w3.org/Graphics/SVG/1.1/DTD/svg11.dtd">
<svg width="100%" height="100%" viewBox="0 0 3112 809" version="1.1" xmlns="http://www.w3.org/2000/svg" xmlns:xlink="http://www.w3.org/1999/xlink" xml:space="preserve" xmlns:serif="http://www.serif.com/" style="fill-rule:evenodd;clip-rule:evenodd;stroke-linejoin:round;stroke-miterlimit:2;">
    <g id="Layer-1" serif:id="Layer 1" transform="matrix(1,0,0,1,1258.28,279.258)">
        <g id="text4487" transform="matrix(6.8998,0,0,7.33217,-1819.37,-762.725)">
            <path id="path4502" d="M83.188,129.051L83.188,125.038L88.38,124.146L88.38,87.614L83.188,86.722L83.188,82.677L99.846,82.677L99.846,86.722L94.654,87.614L94.654,124.146L110.77,124.146L111.248,118.827L116.599,118.827L116.599,129.051L83.188,129.051Z" style="fill-rule:nonzero;"/>
            <path id="path4504" d="M121.376,86.722L121.376,82.677L138.034,82.677L138.034,86.722L132.842,87.614L132.842,124.146L138.034,125.038L138.034,129.051L121.376,129.051L121.376,125.038L126.568,124.146L126.568,87.614L121.376,86.722Z" style="fill-rule:nonzero;"/>
            <path id="path4506" d="M142.047,125.038L145.486,124.56L161.698,82.677L167.081,82.677L183.006,124.56L186.413,125.038L186.413,129.051L173.1,129.051L173.1,125.038L176.604,124.433L173.546,115.897L154.978,115.897L151.825,124.433L155.328,125.038L155.328,129.051L142.047,129.051L142.047,125.038ZM156.92,110.642L171.635,110.642L164.437,90.735L164.246,90.735L156.92,110.642Z" style="fill-rule:nonzero;"/>
            <path id="path4508" d="M235.653,91.914L235.494,91.882L220.493,129.051L216.321,129.051L201.319,91.914L201.16,91.946L201.797,110.705L201.797,124.146L206.988,125.038L206.988,129.051L190.331,129.051L190.331,125.038L195.523,124.146L195.523,87.614L190.331,86.722L190.331,82.677L203.549,82.677L218.327,120.356L218.518,120.356L233.265,82.677L246.514,82.677L246.514,86.722L241.323,87.614L241.323,124.146L246.514,125.038L246.514,129.051L229.857,129.051L229.857,125.038L235.048,124.146L235.048,110.705L235.653,91.914Z" style="fill-rule:nonzero;"/>
            <path id="path4510" d="M270.242,82.709C275.211,82.709 279.022,83.792 281.676,85.958C284.352,88.124 285.69,91.256 285.69,95.354C285.69,97.774 284.978,99.951 283.556,101.883C282.133,103.815 280.126,105.217 277.536,106.087C280.402,106.809 282.462,108.104 283.715,109.973C284.989,111.82 285.626,114.156 285.626,116.98L285.626,121.216C285.626,122.851 285.881,124.061 286.39,124.847C286.9,125.632 287.675,126.057 288.715,126.121L290.276,126.216L290.276,129.051L287.855,129.051C285.605,129.051 284.033,128.286 283.142,126.758C282.25,125.229 281.804,123.36 281.804,121.152L281.804,117.043C281.804,114.241 280.901,112.022 279.097,110.387C277.313,108.731 274.818,107.871 271.612,107.807L259.955,107.807L259.955,125.834L265.146,126.28L265.146,129.051L250.973,129.051L250.973,126.28L256.165,125.834L256.165,85.958L250.973,85.512L250.973,82.709L270.242,82.709ZM259.955,104.558L269.796,104.558C273.979,104.558 277.037,103.72 278.969,102.042C280.901,100.365 281.868,98.125 281.868,95.322C281.868,92.349 280.901,90.045 278.969,88.41C277.037,86.775 274.128,85.958 270.242,85.958L259.955,85.958L259.955,104.558Z" style="fill:rgb(9,65,164);fill-rule:nonzero;"/>
            <path id="path4512" d="M308.621,82.677L308.621,85.512L303.43,85.926L303.43,114.113C303.43,118.063 304.598,121.12 306.933,123.286C309.269,125.431 312.316,126.503 316.074,126.503C319.896,126.503 323.007,125.431 325.406,123.286C327.806,121.141 329.005,118.084 329.005,114.113L329.005,85.926L323.814,85.512L323.814,82.677L337.987,82.677L337.987,85.512L332.796,85.926L332.796,114.113C332.796,119.167 331.245,123.031 328.145,125.707C325.067,128.382 321.043,129.72 316.074,129.72C311.191,129.72 307.231,128.382 304.194,125.707C301.158,123.01 299.64,119.146 299.64,114.113L299.64,85.926L294.448,85.512L294.448,82.677L308.621,82.677Z" style="fill:rgb(9,65,164);fill-rule:nonzero;"/>
            <path id="path4514" d="M374.933,96.437L371.812,96.437L371.27,89.875C370.124,88.432 368.563,87.306 366.588,86.499C364.614,85.671 362.299,85.257 359.645,85.257C355.823,85.257 352.84,86.085 350.695,87.742C348.572,89.398 347.51,91.457 347.51,93.92C347.51,96.256 348.466,98.21 350.377,99.781C352.309,101.331 355.642,102.7 360.377,103.889C365.367,105.163 369.157,106.883 371.748,109.049C374.36,111.215 375.665,114.071 375.665,117.617C375.665,121.311 374.158,124.252 371.143,126.439C368.128,128.626 364.274,129.72 359.581,129.72C356.269,129.72 353.19,129.136 350.345,127.968C347.521,126.8 345.206,125.133 343.402,122.968L343.402,114.846L346.523,114.846L347.064,121.63C348.466,123.222 350.26,124.433 352.447,125.261C354.634,126.089 357.012,126.503 359.581,126.503C363.233,126.503 366.185,125.696 368.436,124.082C370.707,122.469 371.843,120.335 371.843,117.68C371.843,115.154 370.899,113.094 369.009,111.502C367.119,109.888 363.828,108.465 359.135,107.234C354.061,105.96 350.217,104.303 347.606,102.265C344.994,100.227 343.688,97.477 343.688,94.016C343.688,90.47 345.175,87.582 348.147,85.353C351.12,83.123 354.952,82.009 359.645,82.009C363.021,82.009 366.026,82.592 368.658,83.76C371.313,84.928 373.404,86.51 374.933,88.506L374.933,96.437Z" style="fill:rgb(9,65,164);fill-rule:nonzero;"/>
            <path id="path4516" d="M413.79,96.437L410.668,96.437L410.127,89.875C408.98,88.432 407.42,87.306 405.445,86.499C403.47,85.671 401.156,85.257 398.502,85.257C394.68,85.257 391.697,86.085 389.552,87.742C387.429,89.398 386.367,91.457 386.367,93.92C386.367,96.256 387.322,98.21 389.233,99.781C391.166,101.331 394.499,102.7 399.234,103.889C404.224,105.163 408.014,106.883 410.605,109.049C413.216,111.215 414.522,114.071 414.522,117.617C414.522,121.311 413.015,124.252 410,126.439C406.984,128.626 403.131,129.72 398.438,129.72C395.126,129.72 392.047,129.136 389.202,127.968C386.378,126.8 384.063,125.133 382.258,122.968L382.258,114.846L385.38,114.846L385.921,121.63C387.322,123.222 389.117,124.433 391.304,125.261C393.491,126.089 395.869,126.503 398.438,126.503C402.09,126.503 405.042,125.696 407.292,124.082C409.564,122.469 410.7,120.335 410.7,117.68C410.7,115.154 409.755,113.094 407.866,111.502C405.976,109.888 402.685,108.465 397.992,107.234C392.917,105.96 389.074,104.303 386.463,102.265C383.851,100.227 382.545,97.477 382.545,94.016C382.545,90.47 384.031,87.582 387.004,85.353C389.977,83.123 393.809,82.009 398.502,82.009C401.878,82.009 404.882,82.592 407.515,83.76C410.169,84.928 412.261,86.51 413.79,88.506L413.79,96.437Z" style="fill:rgb(9,65,164);fill-rule:nonzero;"/>
            <path id="path4518" d="M447.901,106.597L428.887,106.597L428.887,125.834L450.799,125.834L451.086,118.891L454.462,118.891L454.462,129.051L419.905,129.051L419.905,126.248L425.096,125.834L425.096,85.926L419.905,85.512L419.905,82.677L454.303,82.677L454.303,92.869L450.927,92.869L450.64,85.926L428.887,85.926L428.887,103.348L447.901,103.348L447.901,106.597Z" style="fill:rgb(9,65,164);fill-rule:nonzero;"/>
            <path id="path4520" d="M460.928,129.051L460.928,126.248L466.119,125.834L466.119,85.926L460.928,85.512L460.928,82.677L475.133,82.677L475.133,85.512L469.941,85.926L469.941,125.834L489.21,125.834L489.497,119.305L492.873,119.305L492.873,129.051L460.928,129.051Z" style="fill:rgb(9,65,164);fill-rule:nonzero;"/>
            <path id="path4522" d="M498.51,129.051L498.51,126.248L503.702,125.834L503.702,85.926L498.51,85.512L498.51,82.677L512.715,82.677L512.715,85.512L507.524,85.926L507.524,125.834L526.793,125.834L527.08,119.305L530.456,119.305L530.456,129.051L498.51,129.051Z" style="fill:rgb(9,65,164);fill-rule:nonzero;"/>
        </g>
        <g id="text4495" transform="matrix(7.1127,0,0,7.1127,-1819.37,-762.725)">
            <path id="path4525" d="M92.147,152.626C92.393,152.626 92.591,152.711 92.743,152.881C92.913,153.032 92.998,153.231 92.998,153.476C92.998,153.722 92.913,153.93 92.743,154.1C92.591,154.27 92.393,154.355 92.147,154.355L82.763,154.355L82.763,163.711C82.763,163.956 82.678,164.164 82.508,164.334C82.357,164.486 82.158,164.561 81.913,164.561C81.667,164.561 81.459,164.486 81.289,164.334C81.138,164.164 81.062,163.956 81.062,163.711L81.062,143.27C81.062,143.024 81.138,142.826 81.289,142.675C81.459,142.505 81.667,142.419 81.913,142.419L95.549,142.419C95.776,142.419 95.975,142.505 96.145,142.675C96.315,142.826 96.4,143.024 96.4,143.27C96.4,143.497 96.315,143.695 96.145,143.865C95.975,144.035 95.776,144.121 95.549,144.121L82.763,144.121L82.763,152.626L92.147,152.626Z" style="fill-rule:nonzero;"/>
            <path id="path4527" d="M100.511,143.27C100.511,143.005 100.586,142.797 100.737,142.646C100.908,142.495 101.115,142.419 101.361,142.419C101.626,142.419 101.834,142.495 101.985,142.646C102.136,142.797 102.212,143.005 102.212,143.27L102.212,157.332C102.212,158.485 102.495,159.515 103.062,160.422C103.648,161.329 104.451,162.038 105.472,162.548C106.512,163.059 107.693,163.314 109.016,163.314C110.339,163.314 111.511,163.059 112.531,162.548C113.571,162.038 114.384,161.329 114.969,160.422C115.555,159.515 115.848,158.485 115.848,157.332L115.848,143.27C115.848,143.005 115.924,142.797 116.075,142.646C116.245,142.495 116.453,142.419 116.699,142.419C116.963,142.419 117.171,142.495 117.323,142.646C117.474,142.797 117.549,143.005 117.549,143.27L117.549,157.332C117.549,158.825 117.181,160.158 116.444,161.329C115.725,162.482 114.714,163.389 113.41,164.051C112.125,164.694 110.66,165.015 109.016,165.015C107.371,165.015 105.897,164.694 104.593,164.051C103.308,163.389 102.306,162.482 101.588,161.329C100.87,160.158 100.511,158.825 100.511,157.332L100.511,143.27Z" style="fill-rule:nonzero;"/>
            <path id="path4529" d="M136.566,163.03C136.812,163.03 137.011,163.106 137.162,163.257C137.332,163.389 137.417,163.569 137.417,163.796C137.417,164.023 137.332,164.212 137.162,164.363C137.011,164.495 136.812,164.561 136.566,164.561L124.064,164.561C123.837,164.561 123.639,164.486 123.468,164.335C123.298,164.164 123.213,163.957 123.213,163.711L123.213,143.27C123.213,143.024 123.298,142.826 123.468,142.675C123.639,142.505 123.837,142.419 124.064,142.419C124.31,142.419 124.508,142.505 124.659,142.675C124.829,142.826 124.914,143.024 124.914,143.27L124.914,163.03L136.566,163.03Z" style="fill-rule:nonzero;"/>
            <path id="path4531" d="M154.341,163.03C154.587,163.03 154.785,163.106 154.936,163.257C155.106,163.389 155.191,163.569 155.191,163.796C155.191,164.023 155.106,164.212 154.936,164.363C154.785,164.495 154.587,164.561 154.341,164.561L141.838,164.561C141.612,164.561 141.413,164.486 141.243,164.335C141.073,164.164 140.988,163.957 140.988,163.711L140.988,143.27C140.988,143.024 141.073,142.826 141.243,142.675C141.413,142.505 141.612,142.419 141.838,142.419C142.084,142.419 142.282,142.505 142.434,142.675C142.604,142.826 142.689,143.024 142.689,143.27L142.689,163.03L154.341,163.03Z" style="fill-rule:nonzero;"/>
            <path id="path4533" d="M173.447,142.136C174.827,142.136 176.093,142.467 177.246,143.128C178.399,143.79 179.25,144.584 179.798,145.51C179.873,145.642 179.911,145.793 179.911,145.963C179.911,146.115 179.864,146.256 179.769,146.389C179.694,146.502 179.58,146.596 179.429,146.672C179.353,146.71 179.24,146.729 179.089,146.729C178.749,146.729 178.484,146.587 178.295,146.304C177.18,144.659 175.564,143.837 173.447,143.837C171.878,143.837 170.65,144.196 169.761,144.914C168.892,145.614 168.457,146.596 168.457,147.863C168.457,148.921 168.892,149.81 169.761,150.528C170.631,151.246 171.973,151.756 173.787,152.059C176.169,152.456 177.908,153.193 179.004,154.27C180.1,155.328 180.648,156.727 180.648,158.466C180.648,159.77 180.355,160.904 179.769,161.868C179.202,162.832 178.39,163.569 177.331,164.079C176.292,164.59 175.082,164.845 173.702,164.845C171.926,164.845 170.385,164.486 169.081,163.767C167.777,163.03 166.804,162.029 166.161,160.762C166.104,160.649 166.076,160.536 166.076,160.422C166.076,160.195 166.152,160.006 166.303,159.855C166.473,159.704 166.69,159.628 166.955,159.628C167.333,159.628 167.607,159.808 167.777,160.167C168.287,161.112 169.043,161.849 170.045,162.378C171.066,162.889 172.285,163.144 173.702,163.144C175.328,163.144 176.603,162.737 177.53,161.925C178.475,161.112 178.947,159.959 178.947,158.466C178.947,157.181 178.484,156.122 177.558,155.291C176.651,154.44 175.299,153.892 173.504,153.646C171.406,153.344 169.752,152.664 168.542,151.605C167.352,150.528 166.756,149.224 166.756,147.693C166.756,146.596 167.03,145.633 167.579,144.801C168.146,143.95 168.93,143.298 169.932,142.845C170.952,142.372 172.124,142.136 173.447,142.136L173.447,142.136Z" style="fill-rule:nonzero;"/>
            <path id="path4535" d="M198.636,142.419C198.863,142.419 199.042,142.495 199.174,142.646C199.326,142.779 199.401,142.958 199.401,143.185C199.401,143.412 199.326,143.601 199.174,143.752C199.042,143.884 198.863,143.95 198.636,143.95L191.463,143.95L191.463,163.711C191.463,163.956 191.378,164.164 191.208,164.335C191.057,164.486 190.858,164.561 190.613,164.561C190.367,164.561 190.159,164.486 189.989,164.335C189.838,164.164 189.762,163.957 189.762,163.711L189.762,143.95L182.589,143.95C182.362,143.95 182.173,143.884 182.022,143.752C181.89,143.601 181.824,143.412 181.824,143.185C181.824,142.958 181.89,142.779 182.022,142.646C182.173,142.495 182.362,142.419 182.589,142.419L198.636,142.419Z" style="fill-rule:nonzero;"/>
            <path id="path4537" d="M217.044,163.342C217.101,163.456 217.129,163.579 217.129,163.711C217.129,163.938 217.044,164.136 216.874,164.306C216.704,164.476 216.506,164.561 216.279,164.561C215.901,164.561 215.636,164.382 215.485,164.023L213.387,159.005L201.848,159.005L199.75,164.023C199.618,164.382 199.353,164.561 198.956,164.561C198.692,164.561 198.484,164.476 198.333,164.306C198.182,164.136 198.106,163.938 198.106,163.711C198.106,163.578 198.134,163.456 198.191,163.342L206.781,143.015C206.932,142.618 207.207,142.419 207.603,142.419C207.981,142.419 208.255,142.618 208.426,143.015L217.044,163.342ZM212.735,157.474L207.603,145.226L202.5,157.474L212.735,157.474Z" style="fill-rule:nonzero;"/>
            <path id="path4539" d="M229.734,142.136C232.38,142.136 234.714,142.977 236.736,144.659C236.906,144.791 236.991,144.98 236.991,145.226C236.991,145.453 236.916,145.661 236.765,145.85C236.613,146.02 236.406,146.105 236.141,146.105C235.933,146.105 235.697,145.992 235.432,145.765C233.996,144.48 232.096,143.837 229.734,143.837C228.07,143.837 226.511,144.281 225.056,145.169C223.619,146.058 222.476,147.249 221.625,148.742C220.775,150.216 220.35,151.794 220.35,153.476C220.35,155.215 220.765,156.831 221.597,158.324C222.448,159.798 223.591,160.97 225.028,161.84C226.483,162.709 228.052,163.144 229.734,163.144C231.964,163.144 233.92,162.454 235.602,161.074C235.735,160.98 235.876,160.932 236.028,160.932C236.254,160.932 236.453,161.017 236.623,161.188C236.812,161.358 236.906,161.566 236.906,161.811C236.906,162.057 236.84,162.255 236.708,162.407C235.083,164.032 232.758,164.845 229.734,164.845C227.749,164.845 225.906,164.334 224.205,163.314C222.504,162.274 221.153,160.885 220.151,159.146C219.149,157.389 218.649,155.499 218.649,153.476C218.649,151.454 219.14,149.573 220.123,147.834C221.125,146.096 222.467,144.716 224.149,143.695C225.85,142.656 227.711,142.136 229.734,142.136L229.734,142.136Z" style="fill-rule:nonzero;"/>
            <path id="path4541" d="M243.245,163.711C243.245,163.957 243.16,164.164 242.99,164.335C242.839,164.486 242.64,164.561 242.394,164.561C242.168,164.561 241.969,164.486 241.799,164.335C241.629,164.164 241.544,163.957 241.544,163.711L241.544,143.27C241.544,143.024 241.629,142.826 241.799,142.675C241.969,142.505 242.168,142.419 242.394,142.419C242.64,142.419 242.839,142.505 242.99,142.675C243.16,142.826 243.245,143.024 243.245,143.27L243.245,153.675L254.245,142.675C254.453,142.505 254.67,142.419 254.897,142.419C255.143,142.419 255.341,142.505 255.492,142.675C255.663,142.845 255.748,143.043 255.748,143.27C255.748,143.478 255.663,143.686 255.492,143.894L247.356,152.03L255.578,163.2C255.691,163.371 255.748,163.541 255.748,163.711C255.748,163.938 255.663,164.136 255.492,164.306C255.322,164.476 255.133,164.561 254.925,164.561C254.604,164.561 254.358,164.438 254.188,164.193L246.108,153.278L243.245,156.141L243.245,163.711Z" style="fill-rule:nonzero;"/>
            <path id="path4543" d="M290.263,142.419C290.509,142.419 290.707,142.505 290.859,142.675C291.01,142.826 291.085,143.034 291.085,143.298C291.085,143.374 291.066,143.506 291.029,143.695L285.188,163.824C285.113,164.051 284.99,164.231 284.82,164.363C284.669,164.495 284.499,164.561 284.31,164.561C284.083,164.561 283.894,164.495 283.743,164.363C283.591,164.231 283.487,164.051 283.431,163.824L278.611,146.785L273.848,163.824C273.659,164.316 273.357,164.561 272.941,164.561C272.733,164.561 272.544,164.495 272.374,164.363C272.223,164.212 272.119,164.032 272.062,163.824L266.194,143.695C266.156,143.506 266.137,143.383 266.137,143.327C266.137,143.062 266.212,142.845 266.364,142.675C266.515,142.505 266.723,142.419 266.987,142.419C267.422,142.419 267.696,142.637 267.809,143.072L272.941,160.819L277.817,143.809C277.855,143.657 277.95,143.535 278.101,143.44C278.271,143.327 278.441,143.27 278.611,143.27C278.8,143.27 278.97,143.327 279.121,143.44C279.273,143.535 279.377,143.667 279.433,143.837L284.31,160.819L289.441,142.986C289.479,142.816 289.573,142.684 289.725,142.59C289.876,142.476 290.055,142.419 290.263,142.419L290.263,142.419Z" style="fill-rule:nonzero;"/>
            <path id="path4545" d="M309.244,162.86C309.471,162.86 309.669,162.945 309.839,163.115C310.009,163.286 310.094,163.484 310.094,163.711C310.094,163.956 310.009,164.164 309.839,164.335C309.669,164.486 309.471,164.561 309.244,164.561L295.607,164.561C295.362,164.561 295.154,164.486 294.984,164.335C294.832,164.164 294.757,163.957 294.757,163.711L294.757,143.27C294.757,143.024 294.832,142.826 294.984,142.675C295.154,142.505 295.362,142.419 295.607,142.419L309.244,142.419C309.471,142.419 309.669,142.505 309.839,142.675C310.009,142.826 310.094,143.024 310.094,143.27C310.094,143.497 310.009,143.695 309.839,143.865C309.669,144.035 309.471,144.121 309.244,144.121L296.458,144.121L296.458,152.626L305.842,152.626C306.088,152.626 306.286,152.711 306.437,152.881C306.607,153.032 306.692,153.23 306.692,153.476C306.692,153.722 306.607,153.93 306.437,154.1C306.286,154.27 306.088,154.355 305.842,154.355L296.458,154.355L296.458,162.86L309.244,162.86Z" style="fill-rule:nonzero;"/>
            <path id="path4547" d="M321.989,142.419C323.028,142.419 323.992,142.656 324.881,143.128C325.769,143.582 326.468,144.215 326.979,145.028C327.508,145.84 327.772,146.757 327.772,147.778C327.772,148.836 327.489,149.791 326.922,150.641C326.355,151.473 325.599,152.096 324.654,152.512C325.977,152.871 327.016,153.542 327.772,154.525C328.547,155.489 328.935,156.689 328.935,158.126C328.935,159.373 328.651,160.488 328.084,161.471C327.536,162.435 326.761,163.191 325.76,163.739C324.777,164.287 323.662,164.561 322.414,164.561L315.298,164.561C314.958,164.561 314.684,164.495 314.476,164.363C314.287,164.212 314.192,163.994 314.192,163.711L314.192,143.27C314.192,143.005 314.268,142.797 314.419,142.646C314.589,142.495 314.797,142.419 315.043,142.419L321.989,142.419ZM321.989,151.775C323.199,151.775 324.181,151.407 324.937,150.67C325.693,149.932 326.071,148.968 326.071,147.778C326.071,146.625 325.693,145.727 324.937,145.084C324.2,144.442 323.217,144.121 321.989,144.121L315.894,144.121L315.894,151.775L321.989,151.775ZM322.414,162.86C323.34,162.86 324.162,162.662 324.881,162.265C325.618,161.849 326.194,161.282 326.61,160.564C327.026,159.846 327.234,159.033 327.234,158.126C327.234,157.237 327.026,156.444 326.61,155.744C326.194,155.026 325.618,154.468 324.881,154.072C324.162,153.675 323.34,153.476 322.414,153.476L315.894,153.476L315.894,162.86L322.414,162.86Z" style="fill-rule:nonzero;"/>
            <path id="path4549" d="M347.611,142.419C349.747,142.419 351.655,142.892 353.338,143.837C355.02,144.782 356.333,146.096 357.278,147.778C358.223,149.441 358.696,151.34 358.696,153.476C358.696,155.612 358.223,157.521 357.278,159.203C356.333,160.885 355.02,162.199 353.338,163.144C351.655,164.089 349.747,164.561 347.611,164.561L342.508,164.561C342.262,164.561 342.054,164.486 341.884,164.335C341.733,164.164 341.657,163.957 341.657,163.711L341.657,143.27C341.657,143.005 341.733,142.797 341.884,142.646C342.054,142.495 342.262,142.419 342.508,142.419L347.611,142.419ZM347.611,163.03C349.425,163.03 351.041,162.624 352.459,161.811C353.876,160.98 354.982,159.836 355.776,158.381C356.588,156.926 356.995,155.291 356.995,153.476C356.995,151.662 356.588,150.036 355.776,148.6C354.982,147.145 353.876,146.011 352.459,145.198C351.041,144.366 349.425,143.95 347.611,143.95L343.358,143.95L343.358,163.03L347.611,163.03Z" style="fill-rule:nonzero;"/>
            <path id="path4551" d="M377.74,162.86C377.966,162.86 378.165,162.945 378.335,163.115C378.505,163.286 378.59,163.484 378.59,163.711C378.59,163.956 378.505,164.164 378.335,164.335C378.165,164.486 377.966,164.561 377.74,164.561L364.103,164.561C363.857,164.561 363.649,164.486 363.479,164.335C363.328,164.164 363.252,163.957 363.252,163.711L363.252,143.27C363.252,143.024 363.328,142.826 363.479,142.675C363.649,142.505 363.857,142.419 364.103,142.419L377.74,142.419C377.966,142.419 378.165,142.505 378.335,142.675C378.505,142.826 378.59,143.024 378.59,143.27C378.59,143.497 378.505,143.695 378.335,143.865C378.165,144.035 377.966,144.121 377.74,144.121L364.953,144.121L364.953,152.626L374.337,152.626C374.583,152.626 374.782,152.711 374.933,152.881C375.103,153.032 375.188,153.23 375.188,153.476C375.188,153.722 375.103,153.93 374.933,154.1C374.782,154.27 374.583,154.355 374.337,154.355L364.953,154.355L364.953,162.86L377.74,162.86Z" style="fill-rule:nonzero;"/>
            <path id="path4553" d="M398.451,142.419C398.678,142.419 398.857,142.495 398.99,142.646C399.122,142.797 399.188,142.996 399.188,143.242C399.188,143.45 399.15,143.639 399.075,143.809L390.598,164.023C390.428,164.382 390.173,164.561 389.832,164.561C389.643,164.561 389.483,164.524 389.35,164.448C389.237,164.353 389.143,164.212 389.067,164.023L380.562,143.809C380.467,143.563 380.42,143.365 380.42,143.213C380.42,142.968 380.505,142.779 380.675,142.646C380.845,142.495 381.053,142.419 381.299,142.419C381.488,142.419 381.648,142.467 381.781,142.561C381.913,142.656 382.026,142.807 382.121,143.015L389.861,161.556L397.515,143.128C397.61,142.883 397.733,142.703 397.884,142.59C398.035,142.476 398.224,142.419 398.451,142.419L398.451,142.419Z" style="fill-rule:nonzero;"/>
            <path id="path4555" d="M417.054,162.86C417.281,162.86 417.479,162.945 417.649,163.115C417.819,163.286 417.904,163.484 417.904,163.711C417.904,163.956 417.819,164.164 417.649,164.335C417.479,164.486 417.281,164.561 417.054,164.561L403.417,164.561C403.172,164.561 402.964,164.486 402.794,164.335C402.642,164.164 402.567,163.957 402.567,163.711L402.567,143.27C402.567,143.024 402.642,142.826 402.794,142.675C402.964,142.505 403.172,142.419 403.417,142.419L417.054,142.419C417.281,142.419 417.479,142.505 417.649,142.675C417.819,142.826 417.904,143.024 417.904,143.27C417.904,143.497 417.819,143.695 417.649,143.865C417.479,144.035 417.281,144.121 417.054,144.121L404.268,144.121L404.268,152.626L413.652,152.626C413.898,152.626 414.096,152.711 414.247,152.881C414.417,153.032 414.502,153.23 414.502,153.476C414.502,153.722 414.417,153.93 414.247,154.1C414.096,154.27 413.898,154.355 413.652,154.355L404.268,154.355L404.268,162.86L417.054,162.86Z" style="fill-rule:nonzero;"/>
            <path id="path4557" d="M435.356,163.03C435.601,163.03 435.8,163.106 435.951,163.257C436.121,163.389 436.206,163.569 436.206,163.796C436.206,164.023 436.121,164.212 435.951,164.363C435.8,164.495 435.601,164.561 435.356,164.561L422.853,164.561C422.626,164.561 422.428,164.486 422.258,164.335C422.087,164.164 422.002,163.957 422.002,163.711L422.002,143.27C422.002,143.024 422.087,142.826 422.258,142.675C422.428,142.505 422.626,142.419 422.853,142.419C423.099,142.419 423.297,142.505 423.448,142.675C423.618,142.826 423.703,143.024 423.703,143.27L423.703,163.03L435.356,163.03Z" style="fill-rule:nonzero;"/>
            <path id="path4559" d="M448.018,142.136C450.135,142.136 452.053,142.637 453.773,143.639C455.512,144.621 456.873,145.982 457.856,147.721C458.858,149.441 459.358,151.359 459.358,153.476C459.358,155.612 458.858,157.549 457.856,159.288C456.873,161.008 455.512,162.369 453.773,163.371C452.053,164.353 450.135,164.845 448.018,164.845C445.882,164.845 443.945,164.353 442.206,163.371C440.486,162.369 439.125,161.008 438.124,159.288C437.141,157.549 436.649,155.612 436.649,153.476C436.649,151.359 437.141,149.441 438.124,147.721C439.125,145.982 440.486,144.621 442.206,143.639C443.945,142.637 445.882,142.136 448.018,142.136ZM448.018,143.837C446.204,143.837 444.559,144.262 443.085,145.113C441.611,145.944 440.448,147.097 439.598,148.572C438.766,150.046 438.351,151.681 438.351,153.476C438.351,155.291 438.766,156.935 439.598,158.409C440.448,159.883 441.611,161.046 443.085,161.896C444.559,162.728 446.204,163.144 448.018,163.144C449.814,163.144 451.449,162.728 452.923,161.896C454.397,161.046 455.55,159.883 456.382,158.409C457.232,156.935 457.657,155.291 457.657,153.476C457.657,151.681 457.232,150.046 456.382,148.572C455.55,147.097 454.397,145.944 452.923,145.113C451.449,144.262 449.814,143.837 448.018,143.837Z" style="fill-rule:nonzero;"/>
            <path id="path4561" d="M465.62,163.711C465.62,163.957 465.545,164.164 465.394,164.335C465.242,164.486 465.034,164.561 464.77,164.561C464.524,164.561 464.316,164.486 464.146,164.335C463.995,164.164 463.919,163.957 463.919,163.711L463.919,143.27C463.919,143.005 463.995,142.797 464.146,142.646C464.316,142.495 464.524,142.419 464.77,142.419L470.44,142.419C471.801,142.419 473.02,142.722 474.097,143.327C475.175,143.932 476.016,144.773 476.62,145.85C477.225,146.927 477.528,148.146 477.528,149.507C477.528,150.887 477.225,152.115 476.62,153.193C476.016,154.27 475.175,155.111 474.097,155.716C473.02,156.321 471.801,156.623 470.44,156.623L465.62,156.623L465.62,163.711ZM470.44,154.922C471.479,154.922 472.406,154.695 473.218,154.242C474.031,153.769 474.664,153.127 475.118,152.314C475.59,151.482 475.827,150.547 475.827,149.507C475.827,148.468 475.59,147.541 475.118,146.729C474.664,145.916 474.031,145.283 473.218,144.829C472.406,144.357 471.479,144.121 470.44,144.121L465.62,144.121L465.62,154.922L470.44,154.922Z" style="fill-rule:nonzero;"/>
            <path id="path4563" d="M495.572,162.86C495.799,162.86 495.997,162.945 496.167,163.115C496.337,163.286 496.422,163.484 496.422,163.711C496.422,163.956 496.337,164.164 496.167,164.335C495.997,164.486 495.799,164.561 495.572,164.561L481.935,164.561C481.689,164.561 481.482,164.486 481.311,164.335C481.16,164.164 481.085,163.957 481.085,163.711L481.085,143.27C481.085,143.024 481.16,142.826 481.311,142.675C481.482,142.505 481.689,142.419 481.935,142.419L495.572,142.419C495.799,142.419 495.997,142.505 496.167,142.675C496.337,142.826 496.422,143.024 496.422,143.27C496.422,143.497 496.337,143.695 496.167,143.865C495.997,144.035 495.799,144.121 495.572,144.121L482.786,144.121L482.786,152.626L492.17,152.626C492.415,152.626 492.614,152.711 492.765,152.881C492.935,153.032 493.02,153.23 493.02,153.476C493.02,153.722 492.935,153.93 492.765,154.1C492.614,154.27 492.416,154.355 492.17,154.355L482.786,154.355L482.786,162.86L495.572,162.86Z" style="fill-rule:nonzero;"/>
            <path id="path4565" d="M513.987,163.257C514.138,163.522 514.214,163.739 514.214,163.909C514.214,164.117 514.129,164.278 513.959,164.391C513.807,164.505 513.581,164.561 513.278,164.561C513.089,164.561 512.938,164.524 512.825,164.448C512.711,164.372 512.607,164.259 512.513,164.108L507.296,155.773L502.221,155.773L502.221,163.711C502.221,163.957 502.146,164.164 501.995,164.335C501.844,164.486 501.636,164.561 501.371,164.561C501.125,164.561 500.917,164.486 500.747,164.335C500.596,164.164 500.521,163.957 500.521,163.711L500.521,143.27C500.521,143.005 500.596,142.797 500.747,142.646C500.917,142.495 501.125,142.419 501.371,142.419L506.786,142.419C508.147,142.419 509.366,142.703 510.443,143.27C511.521,143.837 512.362,144.631 512.966,145.651C513.571,146.672 513.874,147.834 513.874,149.139C513.874,150.688 513.439,152.03 512.569,153.164C511.719,154.279 510.566,155.045 509.111,155.461L513.987,163.257ZM506.786,154.072C507.825,154.072 508.752,153.864 509.564,153.448C510.377,153.032 511.01,152.446 511.464,151.69C511.936,150.934 512.173,150.084 512.173,149.139C512.173,148.175 511.936,147.315 511.464,146.559C511.01,145.784 510.377,145.188 509.564,144.773C508.752,144.338 507.825,144.121 506.786,144.121L502.221,144.121L502.221,154.072L506.786,154.072Z" style="fill-rule:nonzero;"/>
        </g>
    </g>
</svg>
